<svg id="Layer_1" data-name="Layer 1" xmlns="http://www.w3.org/2000/svg" viewBox="0 0 595.28 841.89"><defs><style>.cls-1{fill:#231f20;}.cls-1,.cls-2{stroke:#fff;stroke-miterlimit:10;}.cls-2,.cls-3{fill:#c2b59b;}</style></defs><path class="cls-1" d="M360,18c44.5,117.5,54,189,54,189s9.5,17.5,9,153-18,243-18,243l.5.5c0-24.85-42.31-45-94.5-45s-94.5,20.15-94.5,45l-.5-.5s-17.5-107.5-18-243,9-153,9-153,9.5-71.5,54-189"/><rect class="cls-2" x="153.5" y="684.5" width="297" height="72"/><ellipse class="cls-3" cx="161.5" cy="697" rx="72" ry="49.5"/><ellipse class="cls-3" cx="454" cy="698" rx="67.5" ry="49.5"/><ellipse class="cls-3" cx="307" cy="702" rx="63" ry="45"/><rect class="cls-3" y="749" width="595" height="93"/><ellipse class="cls-3" cx="96.5" cy="785.5" rx="87.5" ry="56.5"/><ellipse class="cls-3" cx="301.5" cy="785.5" rx="98.5" ry="56.5"/><ellipse class="cls-3" cx="498.5" cy="781" rx="81.5" ry="61"/></svg>