<svg id="Capa_1" data-name="Capa 1" xmlns="http://www.w3.org/2000/svg" viewBox="0 0 419 470"><defs><style>.cls-1{fill:none;stroke:#dd9797;stroke-miterlimit:10;}</style></defs><path class="cls-1" d="M130.42,331.57" transform="translate(-45.5 -42.5)"/><path class="cls-1" d="M358.31,303.24" transform="translate(-45.5 -42.5)"/><path class="cls-1" d="M314.71,347.12" transform="translate(-45.5 -42.5)"/><path class="cls-1" d="M284.86,374.6" transform="translate(-45.5 -42.5)"/><path class="cls-1" d="M314.71,402.08" transform="translate(-45.5 -42.5)"/><path class="cls-1" d="M451.67,411.45,333.46,254.05a43.1,43.1,0,0,1-8.79-26V61.32h29.85c5.5,0,10-4.1,10-9.16S360,43,354.52,43h-199c-5.5,0-10,4.1-10,9.16s4.46,9.16,10,9.16h29.85V228a43.05,43.05,0,0,1-8.79,26L58.32,411.45A60.34,60.34,0,0,0,46,447.88C46,483.24,77.25,512,115.67,512H394.33c38.42,0,69.67-28.76,69.67-64.12a60.29,60.29,0,0,0-12.33-36.43Zm-258.76-147A60.26,60.26,0,0,0,205.24,228V61.32h99.52V228a60.26,60.26,0,0,0,12.33,36.42l20.83,27.74c-29.14-.68-64.63,8.78-87.36,19.24-.38.17-38.29,17.36-75.18,17.36a153,153,0,0,1-28.57-2.95ZM394.33,493.68H115.67c-27.44,0-49.77-20.55-49.77-45.8a43.09,43.09,0,0,1,8.8-26l59.92-79.78a183.12,183.12,0,0,0,40.76,5c41.68,0,82.36-18.5,84.06-19.29.38-.17,38.29-17.35,75.18-17.35a140.48,140.48,0,0,1,17.94,1.22L435.3,421.87a43.09,43.09,0,0,1,8.8,26C444.1,473.13,421.77,493.68,394.33,493.68Z" transform="translate(-45.5 -42.5)"/></svg>