<svg id="Capa_1" data-name="Capa 1" xmlns="http://www.w3.org/2000/svg" viewBox="0 0 435.78 428.5"><defs><style>.cls-1,.cls-2{fill:#c2e4d4;}.cls-1{stroke:#000;stroke-miterlimit:10;}.cls-3{fill:#f8f8f8;}</style></defs><path class="cls-1" d="M337.13,255.87" transform="translate(-60.78 -71.58)"/><path class="cls-1" d="M450.58,390.89" transform="translate(-60.78 -71.58)"/><path class="cls-1" d="M523.34,376.4" transform="translate(-60.78 -71.58)"/><ellipse class="cls-1" cx="426.18" cy="420.75" rx="9.1" ry="7.25"/><path class="cls-2" d="M431.51,363.05l-108-124.52a31.18,31.18,0,0,1-8-20.57V86.08h27.29c5,0,9.09-3.25,9.09-7.25s-4.07-7.25-9.09-7.25H160.82c-5,0-9.09,3.25-9.09,7.25s4.07,7.25,9.09,7.25h27.29V218a31.18,31.18,0,0,1-8,20.57L72,363.05c-7.37,8.49-11.26,18.46-11.26,28.81,0,28,28.56,50.72,63.66,50.72H379.11c35.11,0,63.67-22.75,63.67-50.72,0-10.35-3.9-20.32-11.27-28.81ZM197.7,248.69c7.37-8.49,11.26-18.46,11.26-28.81V88h91V219.88c0,10.35,3.9,20.32,11.27,28.81m0,0,105.37,122.6a31.18,31.18,0,0,1,8,20.57c0,20-20.4,36.23-45.48,36.23H124.44C99.37,428.09,79,411.84,79,391.86a31.22,31.22,0,0,1,8-20.57l110.7-122.6" transform="translate(-60.78 -71.58)"/><path class="cls-3" d="M425.32,222.28h0Z" transform="translate(-60.78 -71.58)"/><path class="cls-3" d="M369.67,229.67" transform="translate(-60.78 -71.58)"/></svg>